<?xml version="1.0" encoding="utf-8"?>
<svg version="1.1" xmlns="http://www.w3.org/2000/svg" viewBox="24.923999786377 19.4220008850098 139.97399520874 166.096996307373" xml:space="preserve">
  <g>
    <path d="M94.914,122.104c-3.12,37.296-24.15,63.415-24.15,63.415h24.15h24.15C119.064,185.518,98.038,159.399,94.914,122.104z"/>
    <path d="M129.91,79.877c-4.804,0-9.375,0.976-13.537,2.732c-0.102-0.107-0.211-0.214-0.307-0.327c8.406-6.39,13.844-16.489,13.844-27.87c0-19.328-15.671-34.99-34.996-34.99c-19.326,0-34.993,15.662-34.993,34.99c0,12.174,6.223,22.899,15.659,29.166c-4.714-2.365-10.028-3.701-15.659-3.701c-19.33,0-34.997,15.67-34.997,34.997c0,19.326,15.667,34.991,34.997,34.991c18.816,0,34.157-14.855,34.955-33.473c0.026,0.016,0.051,0.031,0.077,0.055c0.822,18.595,16.155,33.418,34.957,33.418c19.322,0,34.988-15.665,34.988-34.991C164.898,95.547,149.232,79.877,129.91,79.877z"/>
  </g>
</svg>
