<?xml version="1.0" encoding="utf-8"?>
<svg version="1.1" xmlns="http://www.w3.org/2000/svg" viewBox="192.503005981445 200.434005737305 132.57698059082 166.169998168945" xml:space="preserve">
  <g>
    <path style="fill:#C81C13;" d="M325.072,283.52c0-0.008,0.008-0.008,0.008-0.008h-0.025c-36.268-20.121-65.322-81.078-66.252-83.032v-0.046c0,0-0.009,0.015-0.009,0.024c-0.004-0.01-0.007-0.024-0.007-0.024l-0.006,0.046c-0.925,1.954-29.987,62.911-66.248,83.032h-0.03c0.009,0,0.014,0,0.014,0.008c0,0-0.005,0-0.014,0.01h0.03c36.261,20.113,65.323,81.07,66.248,83.022l0.006,0.052c0,0,0.003-0.015,0.007-0.027c0,0.013,0.009,0.027,0.009,0.027v-0.052c0.93-1.952,29.983-62.909,66.252-83.022h0.025C325.08,283.52,325.072,283.52,325.072,283.52z"/>
  </g>
</svg>
