<?xml version="1.0" encoding="utf-8"?>
<svg version="1.1" xmlns="http://www.w3.org/2000/svg" viewBox="182.517074584961 23.9409999847412 152.551193237305 161.577997207642" xml:space="preserve">
  <g>
    <path d="M258.79,122.102c-3.12,37.296-24.151,63.417-24.151,63.417h24.151h24.15C282.94,185.518,261.915,159.397,258.79,122.102z"/>
    <path d="M303.878,66.823c-29.91-20.671-44.694-42.289-45.079-42.852v-0.03l-0.009,0.015l-0.008-0.015v0.03c-0.381,0.563-15.165,22.182-45.075,42.852c-30.312,20.943-37.216,47.064-26.37,66.782c10.842,19.709,54.197,29.318,71.454-9.84c17.256,39.158,60.617,29.549,71.458,9.84C341.094,113.887,334.19,87.767,303.878,66.823z"/>
  </g>
</svg>
